<svg width="24" height="24" viewBox="0 0 24 24" fill="none" xmlns="http://www.w3.org/2000/svg">
<g clip-path="url(#clip0_1_3685)">
<path d="M20.317 4.49197C18.787 3.80197 17.147 3.29197 15.432 3.00197C15.4167 2.99904 15.4009 3.00093 15.3868 3.00738C15.3726 3.01383 15.3608 3.02452 15.353 3.03797C15.143 3.40697 14.909 3.88797 14.745 4.26797C12.9261 3.99621 11.0769 3.99621 9.25799 4.26797C9.07533 3.84683 8.86934 3.4362 8.64099 3.03797C8.63325 3.02436 8.62154 3.01342 8.60743 3.00663C8.59331 2.99984 8.57746 2.99752 8.56199 2.99997C6.84799 3.28997 5.20799 3.79997 3.67699 4.49097C3.66382 4.4965 3.65265 4.50592 3.64499 4.51797C0.532992 9.09297 -0.320008 13.555 0.0989923 17.961C0.100158 17.9718 0.103508 17.9822 0.108837 17.9917C0.114167 18.0011 0.121364 18.0094 0.129992 18.016C1.94638 19.3384 3.97233 20.3458 6.12299 20.996C6.13798 21.0006 6.15402 21.0006 6.16901 20.9959C6.18399 20.9913 6.19723 20.9823 6.20699 20.97C6.66979 20.351 7.07989 19.6944 7.43299 19.007C7.43789 18.9976 7.44072 18.9872 7.44127 18.9766C7.44183 18.9661 7.44011 18.9555 7.43622 18.9456C7.43233 18.9358 7.42637 18.9268 7.41874 18.9195C7.41111 18.9121 7.40199 18.9065 7.39199 18.903C6.746 18.6597 6.12008 18.3661 5.51999 18.025C5.50921 18.0188 5.50012 18.0101 5.49355 17.9995C5.48698 17.989 5.48312 17.977 5.48233 17.9646C5.48153 17.9522 5.48383 17.9398 5.48901 17.9286C5.49418 17.9173 5.50208 17.9075 5.51199 17.9C5.63799 17.807 5.76399 17.71 5.88399 17.613C5.89479 17.6043 5.9078 17.5987 5.92158 17.5969C5.93535 17.5952 5.94934 17.5973 5.96199 17.603C9.88899 19.367 14.142 19.367 18.023 17.603C18.0357 17.5969 18.0498 17.5946 18.0638 17.5961C18.0778 17.5977 18.091 17.6032 18.102 17.612C18.222 17.71 18.347 17.807 18.474 17.9C18.484 17.9073 18.492 17.917 18.4974 17.9282C18.5027 17.9394 18.5052 17.9517 18.5046 17.9641C18.504 17.9765 18.5004 17.9885 18.494 17.9991C18.4876 18.0098 18.4787 18.0186 18.468 18.025C17.87 18.369 17.248 18.66 16.595 18.902C16.585 18.9056 16.5758 18.9114 16.5682 18.9188C16.5606 18.9263 16.5546 18.9353 16.5507 18.9452C16.5468 18.9551 16.5451 18.9658 16.5457 18.9764C16.5463 18.9871 16.5491 18.9975 16.554 19.007C16.914 19.694 17.326 20.348 17.779 20.969C17.7884 20.9817 17.8015 20.9912 17.8166 20.9963C17.8316 21.0013 17.8478 21.0015 17.863 20.997C20.0173 20.3486 22.0466 19.3407 23.865 18.016C23.8739 18.0098 23.8813 18.0017 23.8868 17.9924C23.8923 17.9831 23.8958 17.9727 23.897 17.962C24.397 12.868 23.059 8.44197 20.348 4.51997C20.3413 4.50723 20.3303 4.49729 20.317 4.49197ZM8.01999 15.278C6.83799 15.278 5.86299 14.209 5.86299 12.898C5.86299 11.586 6.81899 10.518 8.01999 10.518C9.22999 10.518 10.196 11.595 10.177 12.898C10.177 14.21 9.22099 15.278 8.01999 15.278ZM15.995 15.278C14.812 15.278 13.838 14.209 13.838 12.898C13.838 11.586 14.793 10.518 15.995 10.518C17.205 10.518 18.171 11.595 18.152 12.898C18.152 14.21 17.206 15.278 15.995 15.278Z" fill="white"/>
</g>
<defs>
<clipPath id="clip0_1_3685">
<rect width="24" height="24" fill="white"/>
</clipPath>
</defs>
</svg>
