<svg width="24" height="24" viewBox="0 0 24 24" fill="none" xmlns="http://www.w3.org/2000/svg">
<g clip-path="url(#clip0_1_3702)">
<path fill-rule="evenodd" clip-rule="evenodd" d="M22.6664 23.9906C23.3976 23.9906 23.9904 23.3977 23.9904 22.6665V1.32405C23.9904 0.592629 23.3975 0 22.6664 0H1.32404C0.592629 0 0 0.592719 0 1.32405V22.6664C0 23.3977 0.592629 23.9905 1.32404 23.9905L22.6664 23.9906ZM16.553 23.9906V14.7001H19.6714L20.1382 11.0795H16.5529V8.76782C16.5529 7.71955 16.844 7.00521 18.3472 7.00521L20.2645 7.00432V3.76602C19.9329 3.72198 18.7947 3.62337 17.4707 3.62337C14.7064 3.62337 12.8139 5.31065 12.8139 8.40935V11.0795H9.68755V14.7001H12.8139V23.9905L16.553 23.9906Z" fill="white"/>
</g>
<defs>
<clipPath id="clip0_1_3702">
<rect width="24" height="24" fill="white"/>
</clipPath>
</defs>
</svg>
