<svg width="24" height="24" viewBox="0 0 24 24" fill="none" xmlns="http://www.w3.org/2000/svg">
<g clip-path="url(#clip0_1_3683)">
<path d="M24.4011 12V12.03C24.4011 12.573 24.2513 13.08 23.9931 13.509L23.9998 13.497C23.7415 13.9336 23.372 14.2871 22.9323 14.518L22.9169 14.525C23.0206 14.928 23.0801 15.39 23.0801 15.868V15.886V15.885C23.0731 17.3817 22.5568 18.8274 21.6228 19.965L21.6296 19.956C20.5864 21.2552 19.2498 22.2641 17.7396 22.892L17.6734 22.916C16.1038 23.602 14.2798 24.001 12.3656 24.001L12.2187 24H12.2264L12.0862 24.001C10.1748 24.001 8.35373 23.602 6.69389 22.88L6.78605 22.916C5.25882 22.2915 3.90554 21.2795 2.84909 19.972L2.83661 19.956C1.90687 18.8207 1.39329 17.3791 1.38701 15.887V15.88C1.38701 15.41 1.44077 14.952 1.54157 14.514L1.53389 14.554C1.08027 14.3236 0.696308 13.9676 0.424126 13.525L0.417406 13.514C0.140151 13.0627 -0.00649051 12.5377 -0.00499354 12.002C-0.00499354 11.225 0.296446 10.521 0.785087 10.011C1.02761 9.74818 1.31863 9.53919 1.64066 9.39656C1.96268 9.25393 2.30907 9.18059 2.65901 9.18095H2.70701H2.70413H2.74157C3.50861 9.18095 4.19981 9.52395 4.67981 10.07L4.68173 10.072C6.74593 8.59919 9.18402 7.79927 11.6859 7.77395H11.6936L13.2737 0.383953C13.3012 0.26135 13.374 0.154983 13.4763 0.0879531L13.4782 0.0869531C13.5295 0.0493934 13.5879 0.0236361 13.6494 0.0113942C13.711 -0.000847621 13.7744 0.000706456 13.8353 0.0159531L13.8324 0.0149531L18.8571 1.16395C19.0241 0.810953 19.2747 0.524953 19.5838 0.325953L19.5924 0.320953C19.8987 0.120953 20.2712 0.00195312 20.6705 0.00195312C21.2321 0.00195312 21.7419 0.236953 22.1115 0.618953C22.4811 0.987953 22.7105 1.50695 22.7105 2.08195V2.11795V2.11595V2.14595C22.7105 2.72395 22.4811 3.24595 22.1115 3.61795L22.1105 3.61895C21.9214 3.81722 21.6964 3.97446 21.4486 4.08157C21.2008 4.18868 20.935 4.24353 20.6667 4.24295C20.1281 4.24345 19.6114 4.02158 19.2296 3.62595C19.0419 3.43623 18.8927 3.20912 18.7909 2.95813C18.6892 2.70714 18.6369 2.4374 18.6372 2.16495V2.12695V2.12895L14.0888 1.07895L12.6728 7.77295C15.3099 7.79295 17.754 8.63795 19.7835 10.073L19.7384 10.043C19.9904 9.76904 20.2931 9.55117 20.6282 9.4025C20.9633 9.25383 21.3239 9.17744 21.6881 9.17795C22.4369 9.17795 23.1147 9.49495 23.6052 10.008C24.0939 10.504 24.3972 11.197 24.3972 11.963V12.002V12H24.4011ZM5.69165 14.822V14.854C5.69165 15.43 5.91821 15.951 6.28397 16.325C6.46535 16.5226 6.68335 16.6797 6.92477 16.787C7.16618 16.8943 7.42599 16.9494 7.68845 16.949H7.72301H7.72109C8.26274 16.9484 8.78205 16.7241 9.16506 16.3251C9.54806 15.9261 9.76346 15.3852 9.76397 14.821V14.787C9.76397 14.212 9.53453 13.693 9.16493 13.325L9.16397 13.324C8.97994 13.1283 8.76022 12.9729 8.5177 12.8669C8.27519 12.7609 8.01479 12.7066 7.75181 12.707H7.71917H7.72109C7.18441 12.7117 6.67097 12.9357 6.29138 13.331C5.91179 13.7262 5.69641 14.2609 5.69165 14.82V14.821V14.822ZM16.7211 19.858C16.7686 19.8101 16.8065 19.7528 16.8323 19.6894C16.8581 19.626 16.8714 19.5578 16.8714 19.489C16.8714 19.4201 16.8581 19.3519 16.8323 19.2885C16.8065 19.2251 16.7686 19.1678 16.7211 19.12C16.6784 19.0748 16.6274 19.0389 16.5712 19.0145C16.515 18.9901 16.4546 18.9777 16.3937 18.978H16.3803H16.3812H16.3736C16.2449 18.9778 16.121 19.0285 16.027 19.12C15.572 19.5614 15.0096 19.8644 14.4008 19.996L14.3787 20C12.9278 20.3831 11.4075 20.3783 9.95885 19.986L10.0203 20C9.40182 19.8709 8.82988 19.5655 8.36813 19.118L8.37005 19.12C8.27611 19.0284 8.15215 18.9776 8.02349 18.978H8.00525C7.94437 18.9778 7.88407 18.9903 7.82787 19.0147C7.77166 19.0391 7.72068 19.0748 7.67789 19.12C7.62969 19.1638 7.59105 19.2179 7.56456 19.2787C7.53807 19.3394 7.52434 19.4053 7.52429 19.472V19.486C7.52429 19.632 7.58285 19.764 7.67789 19.858C8.12811 20.2997 8.67019 20.6273 9.26189 20.815L9.29069 20.823C9.81707 21.022 10.3627 21.1608 10.9179 21.237L10.9592 21.242C11.3854 21.2846 11.7982 21.306 12.1976 21.306C12.5969 21.306 13.0097 21.2846 13.436 21.242C14.0244 21.1629 14.6026 21.0164 15.1601 20.805L15.1044 20.824C15.7085 20.6375 16.2624 20.3068 16.722 19.858L16.7201 19.86L16.7211 19.858ZM16.6808 16.95H16.7134C17.2654 16.95 17.7636 16.711 18.1169 16.326L18.1179 16.325C18.4836 15.951 18.7102 15.43 18.7102 14.854V14.82V14.822C18.7057 14.2629 18.4906 13.7281 18.1112 13.3327C17.7317 12.9373 17.2184 12.7129 16.6817 12.708H16.65C16.0971 12.708 15.5969 12.944 15.2379 13.325C15.0482 13.5139 14.8973 13.741 14.7943 13.9925C14.6913 14.2439 14.6385 14.5146 14.6388 14.788V14.824V14.822C14.6394 15.3862 14.8547 15.9271 15.2378 16.3261C15.6208 16.7251 16.1401 16.9494 16.6817 16.95H16.6808Z" fill="white"/>
</g>
<defs>
<clipPath id="clip0_1_3683">
<rect width="24" height="24" fill="white"/>
</clipPath>
</defs>
</svg>
