<svg width="24" height="26" viewBox="0 0 24 26" fill="none" xmlns="http://www.w3.org/2000/svg">
<g clip-path="url(#clip0_1_3706)">
<path fill-rule="evenodd" clip-rule="evenodd" d="M18.3839 22.779C18.5425 22.8919 18.7264 22.9641 18.9194 22.9894C19.1124 23.0147 19.3086 22.9922 19.4909 22.924C19.6722 22.8556 19.8334 22.7429 19.9598 22.5961C20.0863 22.4494 20.174 22.2734 20.2149 22.084C21.0839 18 23.1919 7.66302 23.9829 3.94802C24.0122 3.80997 24.0035 3.66656 23.9577 3.53308C23.9119 3.39959 23.8308 3.28103 23.7229 3.19002C23.6145 3.09794 23.4835 3.03643 23.3434 3.01182C23.2034 2.98721 23.0592 3.0004 22.9259 3.05002C18.7329 4.60202 5.81994 9.44702 0.541941 11.4C0.379298 11.4597 0.239488 11.5689 0.14224 11.7122C0.0449928 11.8556 -0.00478158 12.0259 -5.86589e-05 12.199C0.0119413 12.553 0.249941 12.86 0.592941 12.963C2.95994 13.671 6.06694 14.656 6.06694 14.656C6.06694 14.656 7.51894 19.041 8.27594 21.271C8.37094 21.551 8.58994 21.771 8.87894 21.847C9.0206 21.8839 9.16928 21.8842 9.31111 21.848C9.45293 21.8118 9.58327 21.7402 9.68994 21.64L12.7859 18.717C12.7859 18.717 16.3579 21.336 18.3839 22.779ZM7.37394 14.102L9.05294 19.64L9.42594 16.133L19.6109 6.94702C19.6632 6.90009 19.6957 6.83503 19.7019 6.76503C19.708 6.69504 19.6873 6.62533 19.6439 6.57002C19.6004 6.51459 19.5378 6.47734 19.4683 6.46551C19.3988 6.45368 19.3274 6.46812 19.2679 6.50602L7.37394 14.102Z" fill="white"/>
</g>
<defs>
<clipPath id="clip0_1_3706">
<rect width="24" height="26" fill="white"/>
</clipPath>
</defs>
</svg>
