<svg width="24" height="24" viewBox="0 0 24 24" fill="none" xmlns="http://www.w3.org/2000/svg">
<path d="M23.6425 4.93757C22.8075 5.30757 21.9105 5.55757 20.9675 5.67057C21.9405 5.08836 22.6685 4.17203 23.0155 3.09257C22.1014 3.63555 21.1009 4.01776 20.0575 4.22257C19.3559 3.47343 18.4266 2.97689 17.4138 2.81004C16.4011 2.64319 15.3616 2.81536 14.4568 3.29982C13.5519 3.78428 12.8323 4.55393 12.4097 5.48927C11.9871 6.42461 11.8851 7.47332 12.1195 8.47257C10.2672 8.37956 8.45515 7.89811 6.80095 7.05947C5.14674 6.22083 3.68736 5.04373 2.51752 3.60457C2.11752 4.29457 1.88752 5.09457 1.88752 5.94657C1.88708 6.71356 2.07596 7.46881 2.4374 8.1453C2.79885 8.82179 3.32168 9.3986 3.95952 9.82457C3.2198 9.80103 2.4964 9.60115 1.84952 9.24157V9.30156C1.84945 10.3773 2.22156 11.4199 2.90271 12.2526C3.58386 13.0852 4.53209 13.6565 5.58652 13.8696C4.90031 14.0553 4.18086 14.0826 3.48252 13.9496C3.78002 14.8752 4.35952 15.6846 5.13989 16.2645C5.92026 16.8444 6.86244 17.1657 7.83452 17.1836C6.18436 18.479 4.14641 19.1817 2.04852 19.1786C1.6769 19.1787 1.3056 19.157 0.936523 19.1136C3.066 20.4827 5.54486 21.2094 8.07652 21.2066C16.6465 21.2066 21.3315 14.1086 21.3315 7.95257C21.3315 7.75257 21.3265 7.55056 21.3175 7.35056C22.2288 6.69154 23.0154 5.87546 23.6405 4.94057L23.6425 4.93757Z" fill="#F1F5F8"/>
</svg>
