<svg width="24" height="24" viewBox="0 0 24 24" fill="none" xmlns="http://www.w3.org/2000/svg">
<g clip-path="url(#clip0_1_3559)">
<path d="M23.7469 7.6375C23.7469 7.6375 23.5126 5.9875 22.791 5.25625C21.882 4.3 20.8605 4.3 20.3826 4.24375C17.0376 4 12.0051 4 12.0051 4H11.9957C11.9957 4 6.96327 4 3.59896 4.24375C3.1304 4.3 2.1089 4.3 1.19052 5.25625C0.478304 5.9875 0.244022 7.6375 0.244022 7.6375C0.244022 7.6375 0.000366211 9.5875 0.000366211 11.5281V13.3469C0.000366211 15.2875 0.244022 17.2281 0.244022 17.2281C0.244022 17.2281 0.478304 18.8781 1.1999 19.6094C2.1089 20.5656 3.30843 20.5375 3.84262 20.6312C5.76374 20.8187 11.9957 20.875 11.9957 20.875C11.9957 20.875 17.0375 20.8656 20.3924 20.6219C20.861 20.5656 21.8825 20.5656 22.8008 19.6094C23.5224 18.8781 23.7567 17.2281 23.7567 17.2281C23.7567 17.2281 23.9995 15.2875 23.9995 13.3469V11.5281C23.9901 9.5875 23.7465 7.6375 23.7465 7.6375H23.7469ZM9.52124 15.55V8.80937L16.0061 12.1938L9.52124 15.55Z" fill="#FEFEFE"/>
</g>
<defs>
<clipPath id="clip0_1_3559">
<rect width="24" height="16.875" fill="white" transform="translate(0 4)"/>
</clipPath>
</defs>
</svg>
