<svg width="50" height="50" viewBox="0 0 50 50" fill="none" xmlns="http://www.w3.org/2000/svg">
<path d="M25 0C18.3696 0 12.0107 2.63392 7.32233 7.32233C2.63392 12.0107 0 18.3696 0 25C0 31.6304 2.63392 37.9893 7.32233 42.6777C12.0107 47.3661 18.3696 50 25 50C31.6304 50 37.9893 47.3661 42.6777 42.6777C47.3661 37.9893 50 31.6304 50 25C50 18.3696 47.3661 12.0107 42.6777 7.32233C37.9893 2.63392 31.6304 0 25 0ZM35.3273 36.2423H32.0331V29.1875H17.9633V36.2244H14.6871V13.7577H17.9812V20.8088H32.051V13.7577H35.3452L35.3273 36.2423ZM32.0331 23.2023H17.9633V26.7942H32.0331V23.2023Z" fill="white"/>
</svg>
